<?xml version="1.0" standalone="no"?><!DOCTYPE svg PUBLIC "-//W3C//DTD SVG 1.1//EN" "http://www.w3.org/Graphics/SVG/1.1/DTD/svg11.dtd"><svg t="1569748992969" class="icon" viewBox="0 0 1024 1024" version="1.1" xmlns="http://www.w3.org/2000/svg" p-id="11771" xmlns:xlink="http://www.w3.org/1999/xlink" width="200" height="200"><defs><style type="text/css"></style></defs><path d="M512 451.5c-56.8 0-103-46.2-103-103s46.2-103.1 103-103.1 103.1 46.2 103.1 103.1c0 56.7-46.3 103-103.1 103z m0-142.3c-21.6 0-39.2 17.6-39.2 39.2s17.6 39.2 39.2 39.2 39.2-17.6 39.2-39.2-17.6-39.2-39.2-39.2z" fill="#2BA8FC" p-id="11772"></path><path d="M512 935.1c-200.4 0-416-45.6-416-145.7C96 718 201.4 681.8 289.8 664c17.2-3.5 34.1 7.7 37.6 25s-7.7 34.1-25 37.6c-108.8 22-142.5 53.7-142.5 62.8 0 23.8 123.4 81.9 352.1 81.9s352.1-58.1 352.1-81.9c0-8.5-31.3-38.7-132.1-60.6-17.2-3.7-28.2-20.7-24.4-38 3.7-17.2 20.7-28.1 38-24.4 119.3 25.9 182.4 68.5 182.4 123 0 100.1-215.6 145.7-416 145.7z" fill="#686868" p-id="11773"></path><path d="M510.3 783.4h-0.1c-11 0-21.3-5.8-27-15.2L314.9 495.5c-0.8-1.2-1.4-2.5-2-3.8-37-54.4-55-104.7-55-153.6 0-137.4 114-249.2 254.1-249.2s254.2 111.8 254.2 249.2c0 48.8-18 99.2-55.1 153.6-0.6 1.4-1.3 2.7-2.1 4L537.3 768.5c-5.8 9.3-16 14.9-27 14.9z m-137.7-316l138 223.7 141-224.1c0.9-2.3 2-4.5 3.5-6.5 31.8-45.4 47.2-85.4 47.2-122.3 0-102.2-85.4-185.4-190.3-185.4S321.7 236 321.7 338.2c0 36.9 15.4 76.9 47.2 122.3 1.5 2.1 2.8 4.5 3.7 6.9z" fill="#686868" p-id="11774"></path></svg>